
        <svg xmlns="http://www.w3.org/2000/svg" xmlns:xlink="http://www.w3.org/1999/xlink" version="1.1" width="3179.1485892524734" 
        height="1526.6908187264096" viewBox="0 0 3179.1485892524734 1526.6908187264096">
			
			<g transform="scale(8.95742946262366) translate(10, 10)">
				<defs id="SvgjsDefs6607"></defs><g id="SvgjsG6608" featureKey="symbolFeature-0" transform="matrix(1.1740007912840373,0,0,1.1740007912840373,109.4067836456995,-7.044004747704224)" fill="#d6d42b"><g xmlns="http://www.w3.org/2000/svg"><g><path d="M70.3,26.4c0.3-0.7,0.5-1.4,0.5-2.2c0.1-1,0.1-2.1-0.1-3c-1.2-6-6.3-10.5-12.4-11.1C58.2,10,58,10,57.9,10h-1.1H43.2h-1.1    c-0.1,0-0.3,0-0.4,0.1c-6.1,0.6-11.2,5.1-12.4,11.1c-0.2,1-0.2,2-0.1,3c0.1,0.7,0.3,1.5,0.5,2.2l2.4,5.9c0.9,2.2,1.3,4.5,1.3,6.9    l-0.1,4.3c0,0.9,0.1,1.8,0.4,2.6c1.5,4.3,5.3,7.3,9.8,7.8c0.1,0.1,0.3,0.1,0.4,0.1H45h10h1.1c0.2,0,0.3,0,0.4-0.1    c4.5-0.6,8.3-3.6,9.8-7.8c0.3-0.8,0.4-1.7,0.4-2.6l-0.1-4.3c0-2.4,0.4-4.7,1.3-6.9L70.3,26.4z M66.1,31.5c-1,2.5-1.5,5-1.4,7.7    l0.1,4.3c0,0.7-0.1,1.4-0.3,1.9C63.1,49.4,59.3,52,55,52H45c-4.3,0-8-2.6-9.4-6.6c-0.2-0.6-0.3-1.2-0.3-1.9l0.1-4.3    c0-2.6-0.4-5.2-1.4-7.7l-2.4-5.9c-0.2-0.5-0.4-1.1-0.4-1.6c-0.1-0.9-0.1-1.7,0.1-2.4C32.4,16,37.4,12,43.2,12h13.6    c5.8,0,10.8,4,11.9,9.6c0.2,0.8,0.2,1.6,0.1,2.4c-0.1,0.5-0.2,1.1-0.4,1.6L66.1,31.5z"></path><path d="M31,65h38v-3.1c0-3.8-3.1-6.9-6.9-6.9H37.9c-3.8,0-6.9,3.1-6.9,6.9V65z M33,61.9c0-2.7,2.2-4.9,4.9-4.9h24.1    c2.7,0,4.9,2.2,4.9,4.9V63H33V61.9z"></path><path d="M76,82c2-2.5,2.1-9,2.1-9.7c0-0.2-0.1-0.4-0.2-0.5V66H22v5.8c-0.1,0.2-0.2,0.3-0.2,0.5c0,0.7,0.1,7.2,2.1,9.7    c0.1,0.2,0.2,0.3,0.3,0.4c1,2.4,1.7,5.7,0.4,7c-0.5,0.5-0.8,1.1-1,1.9c-0.3,1.1-0.2,2,0.3,2.7c0.2,0.4,0.7,0.8,1.6,0.9    c0.1,0,0.2,0,0.3,0c1,0,2-0.6,2.7-1.5c1.3-1.8,3.2-5.7,2.5-10.8c-0.3-1.9-0.6-3.3-0.8-4.5c-0.4-2.1-0.7-3.4-0.6-5.1H37v9.4    c0,1.7,1.3,3,3,3s3-1.3,3-3V73h15v9.4c0,1.7,1.3,3,3,3s3-1.3,3-3V73h6.4c0.1,1.7-0.2,3.1-0.6,5.1c-0.2,1.2-0.5,2.6-0.8,4.5    c-0.8,5.1,1.2,9,2.5,10.8c0.7,1,1.7,1.5,2.7,1.5c0.1,0,0.2,0,0.3,0c0.9-0.1,1.3-0.5,1.6-0.9c0.5-0.6,0.5-1.5,0.3-2.7    c-0.2-0.8-0.5-1.4-1-1.9c-1.3-1.3-0.6-4.6,0.4-7C75.8,82.3,75.9,82.2,76,82z M24,68h52v3H24V68z M28.2,78.5    c0.2,1.2,0.5,2.6,0.8,4.4c0.7,4.4-1.1,7.8-2.1,9.4c-0.3,0.4-0.7,0.7-1.1,0.7c-0.1,0-0.2,0-0.2,0c0-0.1-0.1-0.4,0-1.1    c0.1-0.4,0.3-0.7,0.5-0.9c2.4-2.4,0.8-7.2,0-9.2c-0.1-0.3-0.3-0.6-0.6-0.9c-1.1-1.4-1.6-5.2-1.7-7.8h3.7    C27.5,74.9,27.8,76.4,28.2,78.5z M41,82.4c0,0.6-0.4,1-1,1s-1-0.4-1-1V73h2V82.4z M62,82.4c0,0.6-0.4,1-1,1s-1-0.4-1-1V73h2V82.4z     M73.9,90.9c0.2,0.2,0.4,0.5,0.5,0.9c0.2,0.7,0.1,1,0,1.1c0,0-0.1,0-0.2,0c-0.4,0-0.8-0.2-1.1-0.7c-1.1-1.6-2.8-5-2.1-9.4    c0.3-1.8,0.5-3.2,0.8-4.4c0.4-2.1,0.7-3.6,0.6-5.5h3.7c-0.1,2.6-0.6,6.4-1.7,7.8c-0.2,0.3-0.4,0.6-0.6,0.9    C73.1,83.7,71.5,88.5,73.9,90.9z"></path><path d="M25.9,40c-1.6,0.1-2.9,1.4-2.9,3v19c0,1.7,1.3,3,3,3s3-1.3,3-3V43c0-0.4-0.1-0.7-0.2-1H31c0.5,0,0.9-0.4,1-0.9    c0.1-0.1,0.1-0.3,0.1-0.4c0.1-3.1-0.5-6.2-1.7-9.1l-2.8-7c-0.3-0.7-0.4-1.3-0.5-2c-0.1-1-0.1-2,0.1-3C28.5,12.9,34.6,8,41.7,8    h16.6c7.1,0,13.2,4.9,14.5,11.6c0.2,0.9,0.2,1.9,0.1,3c-0.1,0.7-0.2,1.3-0.5,2l-2.8,7c-1.2,2.9-1.8,6-1.7,9.1c0,0.2,0,0.3,0.1,0.4    c0,0,0,0,0,0c0,0.6,0.4,1,1,1h3.1C72.1,42.4,72,42.7,72,43v19c0,1.7,1.3,3,3,3s3-1.3,3-3V43c0-1.7-1.3-3-3-3    c-0.3,0-0.6,0.1-0.9,0.1c0,0-0.1,0-0.1,0h-4.1c0-2.7,0.5-5.3,1.5-7.8l2.8-7c0.3-0.8,0.6-1.7,0.6-2.5c0.1-1.2,0.1-2.4-0.2-3.6    C73.3,12,67.1,6.6,59.6,6.1C59.5,6,59.4,6,59.3,6h-1H41.7h-1.1c-0.1,0-0.2,0-0.3,0.1C32.9,6.7,26.7,12,25.2,19.2    c-0.2,1.1-0.3,2.3-0.2,3.6c0.1,0.9,0.3,1.7,0.6,2.5l2.8,7c1,2.5,1.5,5,1.5,7.7L25.9,40C26,40,25.9,40,25.9,40z M76,43v19    c0,0.6-0.4,1-1,1s-1-0.4-1-1V43c0-0.6,0.4-1,1-1S76,42.4,76,43z M27,62c0,0.6-0.4,1-1,1s-1-0.4-1-1V43c0-0.6,0.4-1,1-1s1,0.4,1,1    V62z"></path></g></g></g><g id="SvgjsG6609" featureKey="nameLeftFeature-0" transform="matrix(1.967442923189035,0,0,1.967442923189035,-1.2240843764565785,110.83603456614058)" fill="#111111"><path d="M0.78 6.82 l8.4376 0.000019531 l0 3.4848 c0 0.093204 -0.064804 0.15801 -0.15781 0.15801 c-0.089004 0 -0.15381 -0.064804 -0.15381 -0.15801 l0 -0.80961 c0 -1.38 -0.82 -2.3634 -2.46 -2.3634 l-2.4822 0 c-0.2906 0 -0.48122 0.219 -0.48122 0.4618 l0 5.3726 l1.65 0 c1.6304 0 1.8112 -0.5676 1.8112 -1.4958 l0 -0.18279 c0 -0.089004 0.069004 -0.15801 0.15801 -0.15801 s0.15801 0.069004 0.15801 0.15801 l0 3.6772 c0 0.089004 -0.069004 0.15801 -0.15801 0.15801 s-0.15801 -0.064804 -0.15801 -0.17041 l0 -0.19859 c0 -0.8918 -0.1724 -1.4676 -1.811 -1.4676 l-1.65 0 l0 5.9386 c0 0.2436 0.1898 0.4636 0.48122 0.4636 l1.1172 0 c0.093204 0 0.15801 0.064804 0.15801 0.15801 c0 0.089004 -0.064804 0.15381 -0.15801 0.15381 l-4.3012 0 c-0.093008 0 -0.15781 -0.064804 -0.15781 -0.15801 c0 -0.089004 0.064804 -0.15381 0.15781 -0.15381 l0.51801 0 c0.2906 0 0.48122 -0.2178 0.48122 -0.4618 l0 -11.631 c0 -0.2444 -0.1898 -0.4634 -0.48122 -0.4634 l-0.51801 0 c-0.093008 0 -0.15781 -0.064804 -0.15781 -0.15381 c0 -0.093204 0.064804 -0.15801 0.15781 -0.15801 z M23.369 19.6882 c0.089004 0 0.15762 0.064804 0.15762 0.15801 c0 0.089004 -0.069004 0.15381 -0.15801 0.15381 l-4.5034 0 c-0.089004 0 -0.15801 -0.064804 -0.15801 -0.15381 c0 -0.093204 0.069004 -0.15801 0.15801 -0.15801 l0.72 0 c0.402 0 0.62738 -0.303 0.47998 -0.7 l-1.239 -3.249 l-5.1044 0 l-1.2558 3.249 c-0.14 0.3616 0.08039 0.7 0.48 0.7 l0.72 0 c0.089004 0 0.15801 0.064804 0.15801 0.15801 c0 0.089004 -0.069004 0.15381 -0.15801 0.15381 l-2.9606 0 c-0.089004 0 -0.15801 -0.064804 -0.15801 -0.15381 c0 -0.093204 0.069004 -0.15801 0.15801 -0.15801 l0.48 0 c0.52 0 0.7558 -0.26 0.92 -0.7 l4.7614 -12.241 l0.37801 0 l4.7042 12.261 c0.1442 0.36 0.42 0.68 0.98 0.68 l0.44 0 z M13.846800000000002 15.4316 l4.8658 0 l-2.4148 -6.332 z M34.956 19.1628 c0.084804 0 0.13701 0.060606 0.13701 0.14121 c0 0.2382 -0.7188 0.82282 -1.6434 0.82282 c-3.9444 0 -0.1292 -6.491 -5.642 -6.491 l-0.70439 0 l0 5.589 c0 0.2436 0.1898 0.4636 0.48122 0.4636 l0.51801 0 c0.093008 0 0.15781 0.064804 0.15781 0.15381 c0 0.093204 -0.064804 0.15801 -0.15781 0.15801 l-3.702 0 c-0.093008 0 -0.15781 -0.064804 -0.15781 -0.15801 c0 -0.089004 0.064804 -0.15381 0.15781 -0.15381 l0.51801 0 c0.2906 0 0.48122 -0.2178 0.48122 -0.4618 l0 -11.631 c0 -0.2444 -0.1898 -0.4634 -0.48122 -0.4634 l-0.51801 0 c-0.093008 0 -0.15781 -0.064804 -0.15781 -0.15381 c0 -0.093204 0.064804 -0.15801 0.15781 -0.15801 l4.3834 0 c2.651 0 4.442 1.042 4.442 3.162 c0 1.87 -1.4616 3.1526 -3.9212 3.472 c5.22 0.72 2.6854 6.175 4.6562 6.175 c0.6186 0 0.802 -0.4662 0.9952 -0.4662 z M27.103 13.32 l1.0738 0.00019531 c2.4718 0 3.269 -1.758 3.269 -3.3132 c0 -1.7808 -0.8594 -2.8752 -3.1138 -2.8752 l-0.74779 0 c-0.2906 0 -0.48122 0.219 -0.48122 0.4618 l0 5.7264 z M47.989 19.6882 c0.089004 0 0.15762 0.064804 0.15762 0.15801 c0 0.089004 -0.069004 0.15381 -0.15801 0.15381 l-4.5034 0 c-0.089004 0 -0.15801 -0.064804 -0.15801 -0.15381 c0 -0.093204 0.069004 -0.15801 0.15801 -0.15801 l0.72 0 c0.402 0 0.62738 -0.303 0.47998 -0.7 l-1.239 -3.249 l-5.1044 0 l-1.2558 3.249 c-0.14 0.3616 0.08039 0.7 0.48 0.7 l0.72 0 c0.089004 0 0.15801 0.064804 0.15801 0.15801 c0 0.089004 -0.069004 0.15381 -0.15801 0.15381 l-2.9606 0 c-0.089004 0 -0.15801 -0.064804 -0.15801 -0.15381 c0 -0.093204 0.069004 -0.15801 0.15801 -0.15801 l0.48 0 c0.52 0 0.7558 -0.26 0.92 -0.7 l4.7614 -12.241 l0.37801 0 l4.7042 12.261 c0.1442 0.36 0.42 0.68 0.98 0.68 l0.44 0 z M38.4668 15.4316 l4.8658 0 l-2.4148 -6.332 z M59.980999999999995 6.82 c0.093204 0 0.15803 0.064454 0.15803 0.15346 c0 0.093008 -0.064804 0.15781 -0.15781 0.15781 l-0.51801 0 c-0.2972 0 -0.48202 0.229 -0.48202 0.478 l0 12.39 l-0.7918 0 l-7.8248 -11.482 l0 10.692 c0 0.249 0.1848 0.478 0.48202 0.478 l0.51801 0 c0.093204 0 0.15801 0.064804 0.15801 0.15801 c0 0.089004 -0.064804 0.15381 -0.15801 0.15381 l-2.3448 0 c-0.093008 0 -0.15781 -0.064804 -0.15781 -0.15381 c0 -0.093204 0.064804 -0.15801 0.15781 -0.15801 l0.51801 0 c0.2972 0 0.48202 -0.229 0.48202 -0.478 l0 -11.601 c0 -0.249 -0.1848 -0.478 -0.48202 -0.478 l-0.51801 0 c-0.093008 0 -0.15781 -0.064804 -0.15781 -0.15781 c0 -0.089004 0.064804 -0.15381 0.15781 -0.15381 l2.1806 0 l7.4358 10.908 l0 -10.118 c0 -0.249 -0.1848 -0.478 -0.48202 -0.478 l-0.51801 0 c-0.093204 0 -0.15801 -0.064804 -0.15801 -0.15781 c0 -0.089004 0.064804 -0.15381 0.15801 -0.15381 l2.3448 0 z M72.91999999999999 18.9262 c-1.4724 0.7772 -3.1086 1.2027 -4.5714 1.2027 c-3.627 0 -6.4918 -2.3932 -6.4918 -6.709 c0 -4.629 3.2076 -6.729 6.3538 -6.729 c2.5008 0 4.6276 1.342 4.6276 3.2296 c0 0.947 -0.5104 1.3484 -0.99658 1.3484 c-0.458 0 -0.89602 -0.333 -0.89602 -0.8834 c0 -0.7172 0.8442 -0.87442 0.8442 -1.4468 c0 -0.9544 -1.5842 -1.8874 -3.365 -1.8874 c-2.1972 0 -4.7592 1.4744 -4.7592 6.3688 c0 4.1386 2.138 6.3234 4.9904 6.3234 c0.793 0 1.6654 -0.171 2.5612 -0.51718 l0 -4.2392 c0 -0.249 -0.1848 -0.478 -0.48202 -0.478 l-1.3938 0 c-0.093008 0 -0.15781 -0.064804 -0.15781 -0.15381 c0 -0.093204 0.064804 -0.15801 0.15781 -0.15801 l3.5786 0 l0 4.729 z M79.12279999999998 19.6882 c0.093008 0 0.15781 0.06461 0.15781 0.15361 c0 0.093204 -0.064804 0.15801 -0.15781 0.15801 l-3.702 0 c-0.093008 0 -0.15781 -0.064804 -0.15781 -0.15801 c0 -0.089004 0.064804 -0.15381 0.15781 -0.15381 l0.51801 0 c0.2906 0 0.48122 -0.2178 0.48122 -0.4618 l0 -11.631 c0 -0.2444 -0.1898 -0.4634 -0.48122 -0.4634 l-0.51801 0 c-0.093008 0 -0.15781 -0.064804 -0.15781 -0.15381 c0 -0.093204 0.064804 -0.15801 0.15781 -0.15801 l3.702 0 c0.093008 0 0.15781 0.064804 0.15781 0.15801 c0 0.089004 -0.064804 0.15381 -0.15781 0.15381 l-0.51801 0 c-0.2906 0 -0.48122 0.219 -0.48122 0.4618 l0 11.631 c0 0.2436 0.1898 0.4636 0.48122 0.4636 l0.51801 0 z M90.475 16.3572 c0.089004 0 0.15359 0.064804 0.15359 0.15801 l0 3.4848 l-9.6704 0 l0 -0.36141 l7.5732 -12.507 l-4.1958 0 c-1.7986 0 -2.7772 0.8248 -2.7772 2.6806 l0 0.4924 c0 0.093204 -0.064804 0.15801 -0.15801 0.15801 c-0.089004 0 -0.15381 -0.064804 -0.15381 -0.15801 l0 -3.4848 l9.2862 0 l0 0.3118 l-7.622 12.557 l4.9462 0 c1.64 0 2.46 -0.9834 2.46 -2.3634 l0 -0.80961 c0 -0.093204 0.064804 -0.15801 0.15801 -0.15801 z"></path></g><g id="SvgjsG6610" featureKey="nameRightFeature-0" transform="matrix(1.9878567809412306,0,0,1.9878567809412306,186.66314796191114,110.44281830851054)" fill="#111111"><path d="M13.36 20.12 l-1.06 0 l-4.82 -11.734 l0 10.174 c0 0.36 0.28 0.7 0.72 0.7 l0.28 0 c0.22 0 0.38 0.16 0.38 0.38 c0 0.2 -0.16 0.36 -0.38 0.36 l-2.9 0 c-0.22 0 -0.38 -0.16 -0.38 -0.36 c0 -0.22 0.16 -0.38 0.38 -0.38 l0.28 0 c0.44 0 0.72 -0.34 0.72 -0.7 l0 -10.3 c0 -0.36 -0.28 -0.7 -0.72 -0.7 l-0.28 0 c-0.22 0 -0.38 -0.16 -0.38 -0.38 c0 -0.2 0.16 -0.36 0.38 -0.36 l4.86 0 l3.698 8.954 l3.522 -8.954 l4.656 0 c0.22 0 0.38 0.16 0.38 0.38 c0 0.2 -0.16 0.36 -0.38 0.36 l-0.28 0 c-0.44 0 -0.72 0.34 -0.72 0.7 l0.004004 10.3 c0 0.36 0.28 0.7 0.72 0.7 l0.28 0 c0.22 0 0.38 0.16 0.38 0.36 c0 0.22 -0.16 0.38 -0.38 0.38 l-5.4 0 c-0.22 0 -0.38 -0.16 -0.38 -0.38 c0 -0.2 0.16 -0.36 0.38 -0.36 l0.28 0 c0.43 0 0.708 -0.324 0.72 -0.676 l-0.004004 -10.11 z M34.22 16.04 c0.2 0 0.36002 0.16 0.36002 0.38 l0 3.58 l-10.696 0 c-0.22 0 -0.38 -0.16 -0.38 -0.38 c0 -0.2 0.16 -0.36 0.38 -0.36 l0.28 0 c0.408 0 0.71602 -0.292 0.71602 -0.622 l-0.004004 -10.448 c0 -0.334 -0.304 -0.63 -0.716 -0.63 l-0.28 0 c-0.22 0 -0.38 -0.16 -0.38 -0.36 c0 -0.22 0.16 -0.38 0.38 -0.38 l10.7 0 l0 3.58 c0 0.22 -0.16 0.38 -0.38 0.38 c-0.2 0 -0.36 -0.16 -0.36 -0.38 l0 -0.08 c0 -1.38 -0.82 -2.76 -2.46 -2.76 l-2.384 0 c-0.408 0 -0.71602 0.286 -0.71602 0.622 l0.0019922 4.578 l0.23801 0 c1.44 0 2.16 -0.52 2.16 -1.94 l0 -0.04 c0 -0.2 0.18 -0.38 0.38 -0.38 s0.38 0.18 0.38 0.38 l0 4.74 c0 0.2 -0.18 0.38 -0.38 0.38 s-0.38 -0.16 -0.38 -0.44 l0 -0.04 c0 -1.32 -0.68 -1.88 -2.16 -1.88 l-0.23801 0 l0.0019922 5.09 c0 0.338 0.304 0.63 0.716 0.63 l2.38 0 c1.64 0 2.46 -1.38 2.46 -2.76 l0 -0.08 c0 -0.22 0.16 -0.38 0.38 -0.38 z M45.128 13.056000000000001 c2.724 0.222 4.432 1.12 4.432 3.264 c0 2.4 -2 3.68 -5.72 3.68 l-6.916 0 c-0.22 0 -0.38 -0.16 -0.38 -0.38 c0 -0.2 0.16 -0.36 0.38 -0.36 l0.28 0 c0.44 0 0.72 -0.34 0.72 -0.7 l-0.004004 -10.3 c0 -0.36 -0.28 -0.7 -0.72 -0.7 l-0.28 0 c-0.22 0 -0.38 -0.16 -0.38 -0.36 c0 -0.22 0.16 -0.38 0.38 -0.38 l6.46 0 c2.98 0 5.4 0.7 5.4 2.96 c0 1.594 -1.13 2.884 -3.652 3.276 z M41.336 8.26 l0 4.6 l0.844 0 c1.6 0 2.86 -0.82 2.86 -2.76 c0 -1.526 -0.884 -2.522 -2.984 -2.54 l-0.04 0 c-0.406 0 -0.68 0.356 -0.68 0.7 z M42.46 19.26 c1.88 0 3.34 -1.04 3.34 -2.88 c0 -1.76 -1.32 -2.74 -3.34 -2.74 l-1.12 0 l0 4.92 c0 0.36 0.28 0.7 0.72 0.7 l0.4 0 z M61.339999999999996 16.04 c0.2 0 0.36002 0.16 0.36002 0.38 l0 3.58 l-10.696 0 c-0.22 0 -0.38 -0.16 -0.38 -0.38 c0 -0.2 0.16 -0.36 0.38 -0.36 l0.28 0 c0.408 0 0.71602 -0.292 0.71602 -0.622 l-0.004004 -10.448 c0 -0.334 -0.304 -0.63 -0.716 -0.63 l-0.28 0 c-0.22 0 -0.38 -0.16 -0.38 -0.36 c0 -0.22 0.16 -0.38 0.38 -0.38 l10.7 0 l0 3.58 c0 0.22 -0.16 0.38 -0.38 0.38 c-0.2 0 -0.36 -0.16 -0.36 -0.38 l0 -0.08 c0 -1.38 -0.82 -2.76 -2.46 -2.76 l-2.384 0 c-0.408 0 -0.71602 0.286 -0.71602 0.622 l0.0019922 4.578 l0.23801 0 c1.44 0 2.16 -0.52 2.16 -1.94 l0 -0.04 c0 -0.2 0.18 -0.38 0.38 -0.38 s0.38 0.18 0.38 0.38 l0 4.74 c0 0.2 -0.18 0.38 -0.38 0.38 s-0.38 -0.16 -0.38 -0.44 l0 -0.04 c0 -1.32 -0.68 -1.88 -2.16 -1.88 l-0.23801 0 l0.0019922 5.09 c0 0.338 0.304 0.63 0.716 0.63 l2.38 0 c1.64 0 2.46 -1.38 2.46 -2.76 l0 -0.08 c0 -0.22 0.16 -0.38 0.38 -0.38 z M74.22 16.04 c0.2 0 0.36 0.16 0.36 0.38 l0 3.58 l-10.536 0 c-0.22 0 -0.38 -0.16 -0.38 -0.38 c0 -0.2 0.16 -0.36 0.38 -0.36 l0.28 0 c0.408 0 0.71602 -0.286 0.71602 -0.622 l-0.004004 -10.448 c0 -0.338 -0.304 -0.63 -0.716 -0.63 l-0.28 0 c-0.22 0 -0.38 -0.16 -0.38 -0.36 c0 -0.22 0.16 -0.38 0.38 -0.38 l5.396 0 c0.22 0 0.38 0.16 0.38 0.38 c0 0.2 -0.16 0.36 -0.38 0.36 l-0.28 0 c-0.408 0 -0.71602 0.292 -0.71602 0.622 l0.004004 10.448 c0 0.334 0.304 0.63 0.716 0.63 l2.22 0 c1.58 0 2.46 -1.4 2.46 -2.62 l0 -0.22 c0 -0.22 0.16 -0.38 0.38 -0.38 z"></path></g>
			</g>
		</svg>
	